
<svg xmlns="http://www.w3.org/2000/svg" xmlns:xlink="http://www.w3.org/1999/xlink" version="1.1"  width="1293" height="591">
<defs id="dmw_defs" >
<svg id="fk_sym" viewBox="0 0 48.665 48.665" style="enable-background:new 0 0 48.665 48.665;" >
<g>
<path d="M40.332,31.592c-2.377,0-4.515,1-6.033,2.598l-17.737-8.686c0.061-0.406,0.103-0.82,0.103-1.246    c0-0.414-0.04-0.818-0.098-1.215l17.711-8.589c1.519,1.609,3.666,2.619,6.054,2.619c4.603,0,8.333-3.731,8.333-8.333    c0-4.603-3.73-8.333-8.333-8.333s-8.333,3.73-8.333,8.333c0,0.414,0.04,0.817,0.098,1.215l-17.709,8.589    c-1.519-1.609-3.666-2.619-6.054-2.619C3.73,15.925,0,19.656,0,24.258c0,4.603,3.73,8.333,8.333,8.333    c2.377,0,4.515-1,6.033-2.596l17.736,8.685c-0.062,0.406-0.104,0.82-0.104,1.245c0,4.604,3.73,8.333,8.333,8.333    s8.333-3.729,8.333-8.333C48.665,35.322,44.935,31.592,40.332,31.592z" fill="#13bf3b"/>
</g>
</svg>
<svg id="pk_sym" viewBox="0 0 480.509 480.509" style="enable-background:new 0 0 480.509 480.509;" >
<g>
<path d="M418.119,331.046c4.094,4.374,7.766,8.186,10.996,11.416c3.237,3.238,6.714,6.376,10.427,9.422   c3.71,3.042,6.427,4.568,8.135,4.568c3.241,0,9.517-4.661,18.843-13.99c9.328-9.321,13.989-15.604,13.989-18.842   c0-1.523-2.714-5.421-8.138-11.704c-5.421-6.276-12.364-13.702-20.838-22.271c-8.473-8.565-16.703-16.744-24.694-24.55   c-8.001-7.81-15.8-15.373-23.417-22.703c-7.611-7.327-11.992-11.56-13.135-12.703c-1.902-1.902-4.093-2.853-6.563-2.853   c-3.237,0-9.521,4.661-18.843,13.988c-9.328,9.322-13.989,15.605-13.989,18.843c0,1.711,1.522,4.421,4.568,8.138   c3.046,3.71,6.188,7.187,9.421,10.424c3.23,3.23,7.047,6.899,11.42,10.992c4.377,4.093,6.848,6.423,7.423,6.995l-27.408,27.404   L254.954,222.268c24.94-33.498,37.408-68.236,37.408-104.211c0-31.024-9.761-56.293-29.263-75.801   c-19.512-19.511-44.778-29.265-75.805-29.265c-30.454,0-60.244,9.042-89.363,27.119c-29.121,18.083-52.727,41.686-70.808,70.808   C9.042,140.038,0,169.828,0,200.28c0,31.029,9.753,56.286,29.265,75.803c19.511,19.517,44.777,29.27,75.801,29.27   c35.976,0,70.71-12.467,104.212-37.407l191.574,191.579c5.332,5.328,11.796,7.994,19.417,7.994c7.991,0,15.704-3.72,23.12-11.14   c7.426-7.426,11.143-15.129,11.143-23.127c0-7.617-2.666-14.092-7.994-19.417l-62.811-62.811l27.405-27.404   C411.699,324.195,414.033,326.666,418.119,331.046z M221.556,161.458c-10.656,10.657-23.601,15.987-38.828,15.987   c-7.996,0-15.896-1.812-23.7-5.43c3.617,7.808,5.426,15.706,5.426,23.7c0,15.229-5.327,28.171-15.987,38.828   c-10.66,10.655-23.606,15.986-38.831,15.986c-15.227,0-28.168-5.325-38.828-15.986c-10.657-10.657-15.987-23.599-15.987-38.828   c0-15.227,5.327-28.171,15.987-38.828C81.464,146.23,94.409,140.9,109.636,140.9c7.992,0,15.893,1.809,23.695,5.424   c-3.616-7.804-5.424-15.706-5.424-23.699c0-15.227,5.327-28.171,15.987-38.828c10.66-10.657,23.604-15.987,38.831-15.987   c15.227,0,28.171,5.327,38.828,15.987c10.657,10.66,15.987,23.601,15.987,38.828C237.539,137.852,232.209,150.797,221.556,161.458z   " fill="#ff8345"/>
</g>
</svg>
<svg id="uk_sym" viewBox="0 0 490 490" style="enable-background:new 0 0 490 490;" >
<g>
	<polygon points="236.99,11.41 0,246.348 236.99,478.678 236.99,350.609 129.864,245 236.99,139.391  " fill="#0064fb"/>
<polygon points="253.01,478.59 490,243.651 253.01,11.322 253.01,139.391 360.136,245 253.01,350.609  " fill="#0064fb"/>
</g>
</svg>
<svg id="link_sym" viewBox="0 0 1000 900" style="enable-background:new 0 0 1000 900;" >
<g>
<path fill="black" d="M660.224 422.656c6.976 16.192-0.512 35.008-16.768 42.048-16.128 6.976-34.944-0.448-41.984-16.768-8.448-19.776-20.736-37.696-36.224-53.248-64.64-64.64-177.344-64.64-241.92 0l-145.216 145.28c-66.688 66.688-66.688 175.232 0 241.984 66.688 66.688 175.104 66.752 241.92 0l92.8-92.864c12.48-12.48 32.768-12.48 45.248 0s12.48 32.768 0 45.248l-92.8 92.864c-91.648 91.648-240.832 91.52-332.416 0-91.712-91.648-91.712-240.832 0-332.48l145.216-145.28c44.352-44.416 103.424-68.864 166.272-68.864s121.792 24.448 166.208 68.864c21.248 21.312 38.016 45.952 49.664 73.216zM891.136 401.344l-145.216 145.216c-88.768 88.832-243.712 88.832-332.416 0-21.312-21.312-38.080-45.952-49.728-73.216-7.040-16.256 0.448-35.072 16.704-42.048 16.064-6.784 35.008 0.512 41.984 16.768 8.512 19.776 20.8 37.696 36.288 53.248 64.64 64.64 177.344 64.64 241.92 0l145.216-145.216c66.688-66.688 66.688-175.232 0-241.984-66.752-66.624-175.168-66.688-241.92 0l-92.8 92.864c-12.48 12.48-32.768 12.48-45.248 0s-12.48-32.768 0-45.248l92.8-92.864c45.824-45.824 105.984-68.736 166.208-68.736s120.448 22.912 166.272 68.736c91.584 91.648 91.584 240.768-0.064 332.48z" />
</g>
</svg>
<clipPath clipPathUnits="userSpaceOnUse" id="clipPath5_0_">
<rect x="0" y="0" width="220" height="129" />
</clipPath>
<clipPath clipPathUnits="userSpaceOnUse" id="clipPath2_0_">
<rect x="0" y="0" width="273" height="165" />
</clipPath>
<clipPath clipPathUnits="userSpaceOnUse" id="clipPath3_0_">
<rect x="0" y="0" width="255" height="99" />
</clipPath>
<clipPath clipPathUnits="userSpaceOnUse" id="clipPath4_0_">
<rect x="0" y="0" width="220" height="240" />
</clipPath>
<clipPath clipPathUnits="userSpaceOnUse" id="clipPath10_0_">
<rect x="0" y="0" width="252" height="165" />
</clipPath>
<clipPath clipPathUnits="userSpaceOnUse" id="clipPath9_0_">
<rect x="0" y="0" width="216" height="210" />
</clipPath>
<clipPath clipPathUnits="userSpaceOnUse" id="clipPath8_0_">
<rect x="0" y="0" width="245" height="195" />
</clipPath>
<clipPath clipPathUnits="userSpaceOnUse" id="clipPath7_0_">
<rect x="0" y="0" width="220" height="114" />
</clipPath>
<clipPath clipPathUnits="userSpaceOnUse" id="clipPath6_0_">
<rect x="0" y="0" width="233" height="150" />
</clipPath>
</defs>
<g stroke-linecap="butt" >
<path stroke="rgb(0,0,0)" fill="none" stroke-opacity="1.0"  stroke-width="1" d="M552 518 L716 518" />
<polygon stroke="rgb(0,0,0)" stroke-dasharray="none" points="552 518 558 515 558 521" fill="rgb(0,0,0)" stroke-width="1" stroke-opacity="1.0"  />
<path stroke-dasharray="none" d="M716.0 524.0 L704.0 518.0 L716.0 512.0 M703.4000005722046 524.0 L703.4000005722046 512.0" fill="white" stroke-width="1" stroke-opacity="1.0" stroke="rgb(0,0,0)" />
</g>
<g stroke-linecap="butt" >
<path stroke="rgb(0,0,0)" fill="none" stroke-opacity="1.0"  stroke-dasharray="8,8" stroke-width="1" d="M1019 114 L934 114" />
<polygon stroke="rgb(0,0,0)" stroke-dasharray="none" points="1019 114 1013 117 1013 111" fill="rgb(0,0,0)" stroke-width="1" stroke-opacity="1.0"  />
<path stroke-dasharray="none" d="M934.0 108.0 L946.0 114.0 L934.0 120.0 M946.5999994277954 108.0 L946.5999994277954 120.0" fill="white" stroke-width="1" stroke-opacity="1.0" stroke="rgb(0,0,0)" />
</g>
<g stroke-linecap="butt" >
<path stroke="rgb(0,0,0)" fill="none" stroke-opacity="1.0"  stroke-width="1" d="M127 211 L127 421" />
<polygon stroke="rgb(0,0,0)" stroke-dasharray="none" points="127 211 130 217 124 217" fill="rgb(0,0,0)" stroke-width="1" stroke-opacity="1.0"  />
<path stroke-dasharray="none" d="M121.0 421.0 L127.0 409.0 L133.0 421.0 M121.0 408.4000005722046 L133.0 408.4000005722046" fill="white" stroke-width="1" stroke-opacity="1.0" stroke="rgb(0,0,0)" />
</g>
<g stroke-linecap="butt" >
<path stroke="rgb(0,0,0)" fill="none" stroke-opacity="1.0"  stroke-width="1" d="M714 106 L235 106" />
<polygon stroke="rgb(0,0,0)" stroke-dasharray="none" points="714 106 708 109 708 103" fill="rgb(0,0,0)" stroke-width="1" stroke-opacity="1.0"  />
<path stroke-dasharray="none" d="M235.0 100.0 L247.0 106.0 L235.0 112.0 M247.5999994277954 100.0 L247.5999994277954 112.0" fill="white" stroke-width="1" stroke-opacity="1.0" stroke="rgb(0,0,0)" />
</g>
<g stroke-linecap="butt" >
<path stroke="rgb(0,0,0)" fill="none" stroke-opacity="1.0"  stroke-width="1" d="M1157 461 L1157 388" />
<polygon stroke="rgb(0,0,0)" stroke-dasharray="none" points="1157 461 1154 455 1160 455" fill="rgb(0,0,0)" stroke-width="1" stroke-opacity="1.0"  />
<path stroke-dasharray="none" d="M1163.0 388.0 L1157.0 400.0 L1151.0 388.0 M1163.0 400.5999994277954 L1151.0 400.5999994277954" fill="white" stroke-width="1" stroke-opacity="1.0" stroke="rgb(0,0,0)" />
</g>
<g stroke-linecap="butt" >
<path stroke="rgb(0,0,0)" fill="none" stroke-opacity="1.0"  stroke-width="1" d="M441 454 L441 355" />
<polygon stroke="rgb(0,0,0)" stroke-dasharray="none" points="441 454 438 448 444 448" fill="rgb(0,0,0)" stroke-width="1" stroke-opacity="1.0"  />
<path stroke-dasharray="none" d="M447.0 355.0 L441.0 367.0 L435.0 355.0 M447.0 367.5999994277954 L435.0 367.5999994277954" fill="white" stroke-width="1" stroke-opacity="1.0" stroke="rgb(0,0,0)" />
</g>
<g stroke-linecap="butt" >
<path stroke="rgb(0,0,0)" fill="none" stroke-opacity="1.0"  stroke-width="1" d="M714 200 L551 200" />
<polygon stroke="rgb(0,0,0)" stroke-dasharray="none" points="714 200 708 203 708 197" fill="rgb(0,0,0)" stroke-width="1" stroke-opacity="1.0"  />
<path stroke-dasharray="none" d="M551.0 194.0 L563.0 200.0 L551.0 206.0 M563.5999994277954 194.0 L563.5999994277954 206.0" fill="white" stroke-width="1" stroke-opacity="1.0" stroke="rgb(0,0,0)" />
</g>
<g  fill="rgb(255,255,180)" stroke="rgb(0,0,255)" fill-opacity="1.0" stroke-opacity="1.0" clip-path="url(#clipPath6_0_)" transform="translate(716,441)" >
<rect x="0" y="0" width="232" height="149" />
<text id="F62692BA-63CBC7668074" x="25" y="15" fill="rgb(0,0,255)" font-weight="bold"  fill-opacity="1.0" font-size="10" stroke="none">
C##ORA_SQL_TEST.M_ITM_PRC_HIS
</text>
<line x1="0" y1="19" x2="231" y2="19" fill="none" stroke="rgb(0,0,255)"/>
<text x="16" y="34" fill="rgb(255,0,0)" fill-opacity="1.0" font-size="10" stroke="none">
*
</text>
<text x="2" y="34" fill="rgb(0,0,255)" fill-opacity="1.0" font-size="10" stroke="none">
PF
</text>
<text x="26" y="34" fill="rgb(0,0,0)" fill-opacity="1.0" font-size="10" stroke="none">
ITM_ID
</text>
<text x="94" y="34" fill="rgb(0,128,0)" fill-opacity="1.0" font-size="10" stroke="none">
VARCHAR2 (40 BYTE)
</text>
<text x="16" y="49" fill="rgb(255,0,0)" fill-opacity="1.0" font-size="10" stroke="none">
*
</text>
<text x="2" y="49" fill="rgb(0,0,255)" fill-opacity="1.0" font-size="10" stroke="none">
P
</text>
<text x="26" y="49" fill="rgb(0,0,0)" fill-opacity="1.0" font-size="10" stroke="none">
TO_YMD
</text>
<text x="94" y="49" fill="rgb(0,128,0)" fill-opacity="1.0" font-size="10" stroke="none">
VARCHAR2 (8 BYTE)
</text>
<text x="16" y="64" fill="rgb(255,0,0)" fill-opacity="1.0" font-size="10" stroke="none">

</text>
<text x="26" y="64" fill="rgb(0,0,0)" fill-opacity="1.0" font-size="10" stroke="none">
FR_YMD
</text>
<text x="94" y="64" fill="rgb(0,128,0)" fill-opacity="1.0" font-size="10" stroke="none">
VARCHAR2 (8 BYTE)
</text>
<text x="16" y="79" fill="rgb(255,0,0)" fill-opacity="1.0" font-size="10" stroke="none">

</text>
<text x="26" y="79" fill="rgb(0,0,0)" fill-opacity="1.0" font-size="10" stroke="none">
UNT_PRC
</text>
<text x="94" y="79" fill="rgb(0,128,0)" fill-opacity="1.0" font-size="10" stroke="none">
NUMBER (18,3)
</text>
<line x1="0" y1="85" x2="231" y2="85" fill="none" stroke="rgb(0,0,255)"/>
<use xlink:href="#pk_sym" x="4" y="93" width="8" height="8" fill-opacity="1.0"/>
<text x="16" y="100" fill="rgb(0,0,0)" fill-opacity="1.0" font-size="10" stroke="none">
PK_M_ITM_PRC_HIS (ITM_ID, TO_YMD)
</text>
<line x1="0" y1="106" x2="231" y2="106" fill="none" stroke="rgb(0,0,255)"/>
<use xlink:href="#fk_sym" x="4" y="114" width="8" height="8" fill-opacity="1.0"/><a xlink:href="#0DEC6C45-E16F96E305A5" >
<text x="16" y="121" fill="rgb(0,0,0)" fill-opacity="1.0" font-size="10" stroke="none">
FK_M_ITM_PRC_HIS (ITM_ID)
</text></a>
<line x1="0" y1="127" x2="231" y2="127" fill="none" stroke="rgb(0,0,255)"/>
<text x="2" y="142" fill="rgb(0,0,0)" fill-opacity="1.0" font-size="10" stroke="none">
U
</text>
<text x="16" y="142" fill="rgb(0,0,0)" fill-opacity="1.0" font-size="10" stroke="none">
PK_M_ITM_PRC_HIS (ITM_ID, TO_YMD)
</text>
</g>
<g  fill="rgb(255,255,180)" stroke="rgb(0,0,255)" fill-opacity="1.0" stroke-opacity="1.0" clip-path="url(#clipPath10_0_)" transform="translate(16,421)" >
<rect x="0" y="0" width="251" height="164" />
<text id="8FED9ACD-4465430060B1" x="46" y="15" fill="rgb(0,0,255)" font-weight="bold"  fill-opacity="1.0" font-size="10" stroke="none">
C##ORA_SQL_TEST.T_ORD_DET
</text>
<line x1="0" y1="19" x2="250" y2="19" fill="none" stroke="rgb(0,0,255)"/>
<text x="16" y="34" fill="rgb(255,0,0)" fill-opacity="1.0" font-size="10" stroke="none">
*
</text>
<text x="2" y="34" fill="rgb(0,0,255)" fill-opacity="1.0" font-size="10" stroke="none">
PF
</text>
<text x="26" y="34" fill="rgb(0,0,0)" fill-opacity="1.0" font-size="10" stroke="none">
ORD_SEQ
</text>
<text x="116" y="34" fill="rgb(0,128,0)" fill-opacity="1.0" font-size="10" stroke="none">
NUMBER (18)
</text>
<text x="16" y="49" fill="rgb(255,0,0)" fill-opacity="1.0" font-size="10" stroke="none">
*
</text>
<text x="2" y="49" fill="rgb(0,0,255)" fill-opacity="1.0" font-size="10" stroke="none">
P
</text>
<text x="26" y="49" fill="rgb(0,0,0)" fill-opacity="1.0" font-size="10" stroke="none">
ORD_DET_NO
</text>
<text x="116" y="49" fill="rgb(0,128,0)" fill-opacity="1.0" font-size="10" stroke="none">
NUMBER (18)
</text>
<text x="16" y="64" fill="rgb(255,0,0)" fill-opacity="1.0" font-size="10" stroke="none">
*
</text>
<text x="26" y="64" fill="rgb(0,0,0)" fill-opacity="1.0" font-size="10" stroke="none">
ITM_ID
</text>
<text x="116" y="64" fill="rgb(0,128,0)" fill-opacity="1.0" font-size="10" stroke="none">
VARCHAR2 (40 BYTE)
</text>
<text x="16" y="79" fill="rgb(255,0,0)" fill-opacity="1.0" font-size="10" stroke="none">

</text>
<text x="26" y="79" fill="rgb(0,0,0)" fill-opacity="1.0" font-size="10" stroke="none">
ORD_QTY
</text>
<text x="116" y="79" fill="rgb(0,128,0)" fill-opacity="1.0" font-size="10" stroke="none">
NUMBER (18)
</text>
<text x="16" y="94" fill="rgb(255,0,0)" fill-opacity="1.0" font-size="10" stroke="none">

</text>
<text x="26" y="94" fill="rgb(0,0,0)" fill-opacity="1.0" font-size="10" stroke="none">
UNT_PRC
</text>
<text x="116" y="94" fill="rgb(0,128,0)" fill-opacity="1.0" font-size="10" stroke="none">
NUMBER (18,3)
</text>
<line x1="0" y1="100" x2="250" y2="100" fill="none" stroke="rgb(0,0,255)"/>
<use xlink:href="#pk_sym" x="4" y="108" width="8" height="8" fill-opacity="1.0"/>
<text x="16" y="115" fill="rgb(0,0,0)" fill-opacity="1.0" font-size="10" stroke="none">
PK_T_ORD_DET (ORD_SEQ, ORD_DET_NO)
</text>
<line x1="0" y1="121" x2="250" y2="121" fill="none" stroke="rgb(0,0,255)"/>
<use xlink:href="#fk_sym" x="4" y="129" width="8" height="8" fill-opacity="1.0"/><a xlink:href="#AD181608-40D7D1187AB0" >
<text x="16" y="136" fill="rgb(0,0,0)" fill-opacity="1.0" font-size="10" stroke="none">
FK_T_ORD_DET_1 (ORD_SEQ)
</text></a>
<line x1="0" y1="142" x2="250" y2="142" fill="none" stroke="rgb(0,0,255)"/>
<text x="2" y="157" fill="rgb(0,0,0)" fill-opacity="1.0" font-size="10" stroke="none">
U
</text>
<text x="16" y="157" fill="rgb(0,0,0)" fill-opacity="1.0" font-size="10" stroke="none">
PK_T_ORD_DET (ORD_SEQ, ORD_DET_NO)
</text>
</g>
<g  fill="rgb(255,255,180)" stroke="rgb(0,0,255)" fill-opacity="1.0" stroke-opacity="1.0" clip-path="url(#clipPath2_0_)" transform="translate(1020,223)" >
<rect x="0" y="0" width="272" height="164" />
<text id="2C804815-87A9F08195CC" x="59" y="15" fill="rgb(0,0,255)" font-weight="bold"  fill-opacity="1.0" font-size="10" stroke="none">
C##ORA_SQL_TEST.C_BAS_CD
</text>
<line x1="0" y1="19" x2="271" y2="19" fill="none" stroke="rgb(0,0,255)"/>
<text x="16" y="34" fill="rgb(255,0,0)" fill-opacity="1.0" font-size="10" stroke="none">
*
</text>
<text x="2" y="34" fill="rgb(0,0,255)" fill-opacity="1.0" font-size="10" stroke="none">
PF
</text>
<text x="26" y="34" fill="rgb(0,0,0)" fill-opacity="1.0" font-size="10" stroke="none">
BAS_CD_DV
</text>
<text x="107" y="34" fill="rgb(0,128,0)" fill-opacity="1.0" font-size="10" stroke="none">
VARCHAR2 (40 BYTE)
</text>
<text x="16" y="49" fill="rgb(255,0,0)" fill-opacity="1.0" font-size="10" stroke="none">
*
</text>
<text x="2" y="49" fill="rgb(0,0,255)" fill-opacity="1.0" font-size="10" stroke="none">
P
</text>
<text x="26" y="49" fill="rgb(0,0,0)" fill-opacity="1.0" font-size="10" stroke="none">
LNG_CD
</text>
<text x="107" y="49" fill="rgb(0,128,0)" fill-opacity="1.0" font-size="10" stroke="none">
VARCHAR2 (40 BYTE)
</text>
<text x="16" y="64" fill="rgb(255,0,0)" fill-opacity="1.0" font-size="10" stroke="none">
*
</text>
<text x="2" y="64" fill="rgb(0,0,255)" fill-opacity="1.0" font-size="10" stroke="none">
P
</text>
<text x="26" y="64" fill="rgb(0,0,0)" fill-opacity="1.0" font-size="10" stroke="none">
BAS_CD
</text>
<text x="107" y="64" fill="rgb(0,128,0)" fill-opacity="1.0" font-size="10" stroke="none">
VARCHAR2 (40 BYTE)
</text>
<text x="16" y="79" fill="rgb(255,0,0)" fill-opacity="1.0" font-size="10" stroke="none">

</text>
<text x="26" y="79" fill="rgb(0,0,0)" fill-opacity="1.0" font-size="10" stroke="none">
BAS_CD_NM
</text>
<text x="107" y="79" fill="rgb(0,128,0)" fill-opacity="1.0" font-size="10" stroke="none">
VARCHAR2 (100 BYTE)
</text>
<text x="16" y="94" fill="rgb(255,0,0)" fill-opacity="1.0" font-size="10" stroke="none">

</text>
<text x="26" y="94" fill="rgb(0,0,0)" fill-opacity="1.0" font-size="10" stroke="none">
SRT_OD
</text>
<text x="107" y="94" fill="rgb(0,128,0)" fill-opacity="1.0" font-size="10" stroke="none">
NUMBER (18)
</text>
<line x1="0" y1="100" x2="271" y2="100" fill="none" stroke="rgb(0,0,255)"/>
<use xlink:href="#pk_sym" x="4" y="108" width="8" height="8" fill-opacity="1.0"/>
<text x="16" y="115" fill="rgb(0,0,0)" fill-opacity="1.0" font-size="10" stroke="none">
PK_C_BAS_CD (BAS_CD_DV, LNG_CD, BAS_CD)
</text>
<line x1="0" y1="121" x2="271" y2="121" fill="none" stroke="rgb(0,0,255)"/>
<use xlink:href="#fk_sym" x="4" y="129" width="8" height="8" fill-opacity="1.0"/><a xlink:href="#3321CFE6-FFBD8B57F17B" >
<text x="16" y="136" fill="rgb(0,0,0)" fill-opacity="1.0" font-size="10" stroke="none">
FK_C_BAS_CD_DV_1 (BAS_CD_DV)
</text></a>
<line x1="0" y1="142" x2="271" y2="142" fill="none" stroke="rgb(0,0,255)"/>
<text x="2" y="157" fill="rgb(0,0,0)" fill-opacity="1.0" font-size="10" stroke="none">
U
</text>
<text x="16" y="157" fill="rgb(0,0,0)" fill-opacity="1.0" font-size="10" stroke="none">
PK_C_BAS_CD (BAS_CD_DV, LNG_CD, BAS_CD)
</text>
</g>
<g  fill="rgb(255,255,180)" stroke="rgb(0,0,255)" fill-opacity="1.0" stroke-opacity="1.0" clip-path="url(#clipPath4_0_)" transform="translate(714,0)" >
<rect x="0" y="0" width="219" height="239" />
<text id="44E67B5D-46BE26926E9E" x="41" y="15" fill="rgb(0,0,255)" font-weight="bold"  fill-opacity="1.0" font-size="10" stroke="none">
C##ORA_SQL_TEST.M_CUS
</text>
<line x1="0" y1="19" x2="218" y2="19" fill="none" stroke="rgb(0,0,255)"/>
<text x="16" y="34" fill="rgb(255,0,0)" fill-opacity="1.0" font-size="10" stroke="none">
*
</text>
<text x="2" y="34" fill="rgb(0,0,255)" fill-opacity="1.0" font-size="10" stroke="none">
P
</text>
<text x="26" y="34" fill="rgb(0,0,0)" fill-opacity="1.0" font-size="10" stroke="none">
CUS_ID
</text>
<text x="94" y="34" fill="rgb(0,128,0)" fill-opacity="1.0" font-size="10" stroke="none">
VARCHAR2 (40 BYTE)
</text>
<text x="16" y="49" fill="rgb(255,0,0)" fill-opacity="1.0" font-size="10" stroke="none">

</text>
<text x="26" y="49" fill="rgb(0,0,0)" fill-opacity="1.0" font-size="10" stroke="none">
CUS_NM
</text>
<text x="94" y="49" fill="rgb(0,128,0)" fill-opacity="1.0" font-size="10" stroke="none">
VARCHAR2 (100 BYTE)
</text>
<text x="16" y="64" fill="rgb(255,0,0)" fill-opacity="1.0" font-size="10" stroke="none">

</text>
<text x="26" y="64" fill="rgb(0,0,0)" fill-opacity="1.0" font-size="10" stroke="none">
MBL_NO
</text>
<text x="94" y="64" fill="rgb(0,128,0)" fill-opacity="1.0" font-size="10" stroke="none">
VARCHAR2 (100 BYTE)
</text>
<text x="16" y="79" fill="rgb(255,0,0)" fill-opacity="1.0" font-size="10" stroke="none">

</text>
<text x="26" y="79" fill="rgb(0,0,0)" fill-opacity="1.0" font-size="10" stroke="none">
EML_AD
</text>
<text x="94" y="79" fill="rgb(0,128,0)" fill-opacity="1.0" font-size="10" stroke="none">
VARCHAR2 (100 BYTE)
</text>
<text x="16" y="94" fill="rgb(255,0,0)" fill-opacity="1.0" font-size="10" stroke="none">

</text>
<text x="26" y="94" fill="rgb(0,0,0)" fill-opacity="1.0" font-size="10" stroke="none">
PWD
</text>
<text x="94" y="94" fill="rgb(0,128,0)" fill-opacity="1.0" font-size="10" stroke="none">
VARCHAR2 (200 BYTE)
</text>
<text x="16" y="109" fill="rgb(255,0,0)" fill-opacity="1.0" font-size="10" stroke="none">

</text>
<text x="2" y="109" fill="rgb(0,0,0)" fill-opacity="1.0" font-size="10" stroke="none">
F
</text>
<text x="26" y="109" fill="rgb(0,0,0)" fill-opacity="1.0" font-size="10" stroke="none">
RGN_ID
</text>
<text x="94" y="109" fill="rgb(0,128,0)" fill-opacity="1.0" font-size="10" stroke="none">
VARCHAR2 (40 BYTE)
</text>
<text x="16" y="124" fill="rgb(255,0,0)" fill-opacity="1.0" font-size="10" stroke="none">

</text>
<text x="26" y="124" fill="rgb(0,0,0)" fill-opacity="1.0" font-size="10" stroke="none">
ADR_TXT
</text>
<text x="94" y="124" fill="rgb(0,128,0)" fill-opacity="1.0" font-size="10" stroke="none">
VARCHAR2 (200 BYTE)
</text>
<text x="16" y="139" fill="rgb(255,0,0)" fill-opacity="1.0" font-size="10" stroke="none">

</text>
<text x="26" y="139" fill="rgb(0,0,0)" fill-opacity="1.0" font-size="10" stroke="none">
GND_TP
</text>
<text x="94" y="139" fill="rgb(0,128,0)" fill-opacity="1.0" font-size="10" stroke="none">
VARCHAR2 (40 BYTE)
</text>
<text x="16" y="154" fill="rgb(255,0,0)" fill-opacity="1.0" font-size="10" stroke="none">

</text>
<text x="26" y="154" fill="rgb(0,0,0)" fill-opacity="1.0" font-size="10" stroke="none">
BTH_YMD
</text>
<text x="94" y="154" fill="rgb(0,128,0)" fill-opacity="1.0" font-size="10" stroke="none">
VARCHAR2 (8 BYTE)
</text>
<text x="16" y="169" fill="rgb(255,0,0)" fill-opacity="1.0" font-size="10" stroke="none">

</text>
<text x="26" y="169" fill="rgb(0,0,0)" fill-opacity="1.0" font-size="10" stroke="none">
CUS_GD
</text>
<text x="94" y="169" fill="rgb(0,128,0)" fill-opacity="1.0" font-size="10" stroke="none">
VARCHAR2 (40 BYTE)
</text>
<line x1="0" y1="175" x2="218" y2="175" fill="none" stroke="rgb(0,0,255)"/>
<use xlink:href="#pk_sym" x="4" y="183" width="8" height="8" fill-opacity="1.0"/>
<text x="16" y="190" fill="rgb(0,0,0)" fill-opacity="1.0" font-size="10" stroke="none">
PK_M_CUS (CUS_ID)
</text>
<line x1="0" y1="196" x2="218" y2="196" fill="none" stroke="rgb(0,0,255)"/>
<use xlink:href="#fk_sym" x="4" y="204" width="8" height="8" fill-opacity="1.0"/><a xlink:href="#EF8DBEAA-38BA46AB9C84" >
<text x="16" y="211" fill="rgb(0,0,0)" fill-opacity="1.0" font-size="10" stroke="none">
FK_CUS_1 (RGN_ID)
</text></a>
<line x1="0" y1="217" x2="218" y2="217" fill="none" stroke="rgb(0,0,255)"/>
<text x="2" y="232" fill="rgb(0,0,0)" fill-opacity="1.0" font-size="10" stroke="none">
U
</text>
<text x="16" y="232" fill="rgb(0,0,0)" fill-opacity="1.0" font-size="10" stroke="none">
PK_M_CUS (CUS_ID)
</text>
</g>
<g  fill="rgb(255,255,180)" stroke="rgb(0,0,255)" fill-opacity="1.0" stroke-opacity="1.0" clip-path="url(#clipPath8_0_)" transform="translate(306,160)" >
<rect x="0" y="0" width="244" height="194" />
<text id="CF95C423-B9E1ADA3A1A3" x="45" y="15" fill="rgb(0,0,255)" font-weight="bold"  fill-opacity="1.0" font-size="10" stroke="none">
C##ORA_SQL_TEST.T_ITM_EVL
</text>
<line x1="0" y1="19" x2="243" y2="19" fill="none" stroke="rgb(0,0,255)"/>
<text x="16" y="34" fill="rgb(255,0,0)" fill-opacity="1.0" font-size="10" stroke="none">
*
</text>
<text x="2" y="34" fill="rgb(0,0,255)" fill-opacity="1.0" font-size="10" stroke="none">
PF
</text>
<text x="26" y="34" fill="rgb(0,0,0)" fill-opacity="1.0" font-size="10" stroke="none">
ITM_ID
</text>
<text x="113" y="34" fill="rgb(0,128,0)" fill-opacity="1.0" font-size="10" stroke="none">
VARCHAR2 (40 BYTE)
</text>
<text x="16" y="49" fill="rgb(255,0,0)" fill-opacity="1.0" font-size="10" stroke="none">
*
</text>
<text x="2" y="49" fill="rgb(0,0,255)" fill-opacity="1.0" font-size="10" stroke="none">
P
</text>
<text x="26" y="49" fill="rgb(0,0,0)" fill-opacity="1.0" font-size="10" stroke="none">
EVL_LST_NO
</text>
<text x="113" y="49" fill="rgb(0,128,0)" fill-opacity="1.0" font-size="10" stroke="none">
NUMBER (18)
</text>
<text x="16" y="64" fill="rgb(255,0,0)" fill-opacity="1.0" font-size="10" stroke="none">
*
</text>
<text x="2" y="64" fill="rgb(0,0,0)" fill-opacity="1.0" font-size="10" stroke="none">
F
</text>
<text x="26" y="64" fill="rgb(0,0,0)" fill-opacity="1.0" font-size="10" stroke="none">
CUS_ID
</text>
<text x="113" y="64" fill="rgb(0,128,0)" fill-opacity="1.0" font-size="10" stroke="none">
VARCHAR2 (40 BYTE)
</text>
<text x="16" y="79" fill="rgb(255,0,0)" fill-opacity="1.0" font-size="10" stroke="none">

</text>
<text x="26" y="79" fill="rgb(0,0,0)" fill-opacity="1.0" font-size="10" stroke="none">
EVL_DSC
</text>
<text x="113" y="79" fill="rgb(0,128,0)" fill-opacity="1.0" font-size="10" stroke="none">
VARCHAR2 (1000 BYTE)
</text>
<text x="16" y="94" fill="rgb(255,0,0)" fill-opacity="1.0" font-size="10" stroke="none">

</text>
<text x="26" y="94" fill="rgb(0,0,0)" fill-opacity="1.0" font-size="10" stroke="none">
EVL_DT
</text>
<text x="113" y="94" fill="rgb(0,128,0)" fill-opacity="1.0" font-size="10" stroke="none">
DATE
</text>
<text x="16" y="109" fill="rgb(255,0,0)" fill-opacity="1.0" font-size="10" stroke="none">

</text>
<text x="26" y="109" fill="rgb(0,0,0)" fill-opacity="1.0" font-size="10" stroke="none">
EVL_PT
</text>
<text x="113" y="109" fill="rgb(0,128,0)" fill-opacity="1.0" font-size="10" stroke="none">
NUMBER (18,2)
</text>
<line x1="0" y1="115" x2="243" y2="115" fill="none" stroke="rgb(0,0,255)"/>
<use xlink:href="#pk_sym" x="4" y="123" width="8" height="8" fill-opacity="1.0"/>
<text x="16" y="130" fill="rgb(0,0,0)" fill-opacity="1.0" font-size="10" stroke="none">
PK_T_ITM_EVL (ITM_ID, EVL_LST_NO)
</text>
<line x1="0" y1="136" x2="243" y2="136" fill="none" stroke="rgb(0,0,255)"/>
<use xlink:href="#fk_sym" x="4" y="144" width="8" height="8" fill-opacity="1.0"/><a xlink:href="#44E67B5D-46BE26926E9E" >
<text x="16" y="151" fill="rgb(0,0,0)" fill-opacity="1.0" font-size="10" stroke="none">
FK_T_ITM_EVL_1 (CUS_ID)
</text></a>
<use xlink:href="#fk_sym" x="4" y="159" width="8" height="8" fill-opacity="1.0"/><a xlink:href="#0DEC6C45-E16F96E305A5" >
<text x="16" y="166" fill="rgb(0,0,0)" fill-opacity="1.0" font-size="10" stroke="none">
FK_T_ITM_EVL_2 (ITM_ID)
</text></a>
<line x1="0" y1="172" x2="243" y2="172" fill="none" stroke="rgb(0,0,255)"/>
<text x="2" y="187" fill="rgb(0,0,0)" fill-opacity="1.0" font-size="10" stroke="none">
U
</text>
<text x="16" y="187" fill="rgb(0,0,0)" fill-opacity="1.0" font-size="10" stroke="none">
PK_T_ITM_EVL (ITM_ID, EVL_LST_NO)
</text>
</g>
<g  fill="rgb(255,255,180)" stroke="rgb(0,0,255)" fill-opacity="1.0" stroke-opacity="1.0" clip-path="url(#clipPath7_0_)" transform="translate(1019,57)" >
<rect x="0" y="0" width="219" height="113" />
<text id="EF8DBEAA-38BA46AB9C84" x="41" y="15" fill="rgb(0,0,255)" font-weight="bold"  fill-opacity="1.0" font-size="10" stroke="none">
C##ORA_SQL_TEST.M_RGN
</text>
<line x1="0" y1="19" x2="218" y2="19" fill="none" stroke="rgb(0,0,255)"/>
<text x="16" y="34" fill="rgb(255,0,0)" fill-opacity="1.0" font-size="10" stroke="none">
*
</text>
<text x="2" y="34" fill="rgb(0,0,255)" fill-opacity="1.0" font-size="10" stroke="none">
P
</text>
<text x="26" y="34" fill="rgb(0,0,0)" fill-opacity="1.0" font-size="10" stroke="none">
RGN_ID
</text>
<text x="84" y="34" fill="rgb(0,128,0)" fill-opacity="1.0" font-size="10" stroke="none">
VARCHAR2 (40 BYTE)
</text>
<text x="16" y="49" fill="rgb(255,0,0)" fill-opacity="1.0" font-size="10" stroke="none">

</text>
<text x="26" y="49" fill="rgb(0,0,0)" fill-opacity="1.0" font-size="10" stroke="none">
RGN_NM
</text>
<text x="84" y="49" fill="rgb(0,128,0)" fill-opacity="1.0" font-size="10" stroke="none">
VARCHAR2 (100 BYTE)
</text>
<text x="16" y="64" fill="rgb(255,0,0)" fill-opacity="1.0" font-size="10" stroke="none">

</text>
<text x="26" y="64" fill="rgb(0,0,0)" fill-opacity="1.0" font-size="10" stroke="none">
SRT_OD
</text>
<text x="84" y="64" fill="rgb(0,128,0)" fill-opacity="1.0" font-size="10" stroke="none">
NUMBER (18)
</text>
<line x1="0" y1="70" x2="218" y2="70" fill="none" stroke="rgb(0,0,255)"/>
<use xlink:href="#pk_sym" x="4" y="78" width="8" height="8" fill-opacity="1.0"/>
<text x="16" y="85" fill="rgb(0,0,0)" fill-opacity="1.0" font-size="10" stroke="none">
PK_M_RGN (RGN_ID)
</text>
<line x1="0" y1="91" x2="218" y2="91" fill="none" stroke="rgb(0,0,255)"/>
<text x="2" y="106" fill="rgb(0,0,0)" fill-opacity="1.0" font-size="10" stroke="none">
U
</text>
<text x="16" y="106" fill="rgb(0,0,0)" fill-opacity="1.0" font-size="10" stroke="none">
PK_M_RGN (RGN_ID)
</text>
</g>
<g  fill="rgb(255,255,180)" stroke="rgb(0,0,255)" fill-opacity="1.0" stroke-opacity="1.0" clip-path="url(#clipPath3_0_)" transform="translate(1030,461)" >
<rect x="0" y="0" width="254" height="98" />
<text id="3321CFE6-FFBD8B57F17B" x="40" y="15" fill="rgb(0,0,255)" font-weight="bold"  fill-opacity="1.0" font-size="10" stroke="none">
C##ORA_SQL_TEST.C_BAS_CD_DV
</text>
<line x1="0" y1="19" x2="253" y2="19" fill="none" stroke="rgb(0,0,255)"/>
<text x="16" y="34" fill="rgb(255,0,0)" fill-opacity="1.0" font-size="10" stroke="none">
*
</text>
<text x="2" y="34" fill="rgb(0,0,255)" fill-opacity="1.0" font-size="10" stroke="none">
P
</text>
<text x="26" y="34" fill="rgb(0,0,0)" fill-opacity="1.0" font-size="10" stroke="none">
BAS_CD_DV
</text>
<text x="129" y="34" fill="rgb(0,128,0)" fill-opacity="1.0" font-size="10" stroke="none">
VARCHAR2 (40 BYTE)
</text>
<text x="16" y="49" fill="rgb(255,0,0)" fill-opacity="1.0" font-size="10" stroke="none">

</text>
<text x="26" y="49" fill="rgb(0,0,0)" fill-opacity="1.0" font-size="10" stroke="none">
BAS_CD_DV_NM
</text>
<text x="129" y="49" fill="rgb(0,128,0)" fill-opacity="1.0" font-size="10" stroke="none">
VARCHAR2 (100 BYTE)
</text>
<line x1="0" y1="55" x2="253" y2="55" fill="none" stroke="rgb(0,0,255)"/>
<use xlink:href="#pk_sym" x="4" y="63" width="8" height="8" fill-opacity="1.0"/>
<text x="16" y="70" fill="rgb(0,0,0)" fill-opacity="1.0" font-size="10" stroke="none">
PK_C_BAS_CD_DV (BAS_CD_DV)
</text>
<line x1="0" y1="76" x2="253" y2="76" fill="none" stroke="rgb(0,0,255)"/>
<text x="2" y="91" fill="rgb(0,0,0)" fill-opacity="1.0" font-size="10" stroke="none">
U
</text>
<text x="16" y="91" fill="rgb(0,0,0)" fill-opacity="1.0" font-size="10" stroke="none">
PK_C_BAS_CD_DV (BAS_CD_DV)
</text>
</g>
<g  fill="rgb(255,255,180)" stroke="rgb(0,0,255)" fill-opacity="1.0" stroke-opacity="1.0" clip-path="url(#clipPath5_0_)" transform="translate(332,454)" >
<rect x="0" y="0" width="219" height="128" />
<text id="0DEC6C45-E16F96E305A5" x="43" y="15" fill="rgb(0,0,255)" font-weight="bold"  fill-opacity="1.0" font-size="10" stroke="none">
C##ORA_SQL_TEST.M_ITM
</text>
<line x1="0" y1="19" x2="218" y2="19" fill="none" stroke="rgb(0,0,255)"/>
<text x="16" y="34" fill="rgb(255,0,0)" fill-opacity="1.0" font-size="10" stroke="none">
*
</text>
<text x="2" y="34" fill="rgb(0,0,255)" fill-opacity="1.0" font-size="10" stroke="none">
P
</text>
<text x="26" y="34" fill="rgb(0,0,0)" fill-opacity="1.0" font-size="10" stroke="none">
ITM_ID
</text>
<text x="94" y="34" fill="rgb(0,128,0)" fill-opacity="1.0" font-size="10" stroke="none">
VARCHAR2 (40 BYTE)
</text>
<text x="16" y="49" fill="rgb(255,0,0)" fill-opacity="1.0" font-size="10" stroke="none">

</text>
<text x="26" y="49" fill="rgb(0,0,0)" fill-opacity="1.0" font-size="10" stroke="none">
ITM_NM
</text>
<text x="94" y="49" fill="rgb(0,128,0)" fill-opacity="1.0" font-size="10" stroke="none">
VARCHAR2 (100 BYTE)
</text>
<text x="16" y="64" fill="rgb(255,0,0)" fill-opacity="1.0" font-size="10" stroke="none">

</text>
<text x="26" y="64" fill="rgb(0,0,0)" fill-opacity="1.0" font-size="10" stroke="none">
ITM_TP
</text>
<text x="94" y="64" fill="rgb(0,128,0)" fill-opacity="1.0" font-size="10" stroke="none">
VARCHAR2 (40 BYTE)
</text>
<text x="16" y="79" fill="rgb(255,0,0)" fill-opacity="1.0" font-size="10" stroke="none">

</text>
<text x="26" y="79" fill="rgb(0,0,0)" fill-opacity="1.0" font-size="10" stroke="none">
UNT_PRC
</text>
<text x="94" y="79" fill="rgb(0,128,0)" fill-opacity="1.0" font-size="10" stroke="none">
NUMBER (18,3)
</text>
<line x1="0" y1="85" x2="218" y2="85" fill="none" stroke="rgb(0,0,255)"/>
<use xlink:href="#pk_sym" x="4" y="93" width="8" height="8" fill-opacity="1.0"/>
<text x="16" y="100" fill="rgb(0,0,0)" fill-opacity="1.0" font-size="10" stroke="none">
PK_M_ITM (ITM_ID)
</text>
<line x1="0" y1="106" x2="218" y2="106" fill="none" stroke="rgb(0,0,255)"/>
<text x="2" y="121" fill="rgb(0,0,0)" fill-opacity="1.0" font-size="10" stroke="none">
U
</text>
<text x="16" y="121" fill="rgb(0,0,0)" fill-opacity="1.0" font-size="10" stroke="none">
PK_M_ITM (ITM_ID)
</text>
</g>
<g  fill="rgb(255,255,180)" stroke="rgb(0,0,255)" fill-opacity="1.0" stroke-opacity="1.0" clip-path="url(#clipPath9_0_)" transform="translate(19,1)" >
<rect x="0" y="0" width="215" height="209" />
<text id="AD181608-40D7D1187AB0" x="41" y="15" fill="rgb(0,0,255)" font-weight="bold"  fill-opacity="1.0" font-size="10" stroke="none">
C##ORA_SQL_TEST.T_ORD
</text>
<line x1="0" y1="19" x2="214" y2="19" fill="none" stroke="rgb(0,0,255)"/>
<text x="16" y="34" fill="rgb(255,0,0)" fill-opacity="1.0" font-size="10" stroke="none">
*
</text>
<text x="2" y="34" fill="rgb(0,0,255)" fill-opacity="1.0" font-size="10" stroke="none">
P
</text>
<text x="26" y="34" fill="rgb(0,0,0)" fill-opacity="1.0" font-size="10" stroke="none">
ORD_SEQ
</text>
<text x="96" y="34" fill="rgb(0,128,0)" fill-opacity="1.0" font-size="10" stroke="none">
NUMBER (18)
</text>
<text x="16" y="49" fill="rgb(255,0,0)" fill-opacity="1.0" font-size="10" stroke="none">
*
</text>
<text x="2" y="49" fill="rgb(0,0,0)" fill-opacity="1.0" font-size="10" stroke="none">
F
</text>
<text x="26" y="49" fill="rgb(0,0,0)" fill-opacity="1.0" font-size="10" stroke="none">
CUS_ID
</text>
<text x="96" y="49" fill="rgb(0,128,0)" fill-opacity="1.0" font-size="10" stroke="none">
VARCHAR2 (40 BYTE)
</text>
<text x="16" y="64" fill="rgb(255,0,0)" fill-opacity="1.0" font-size="10" stroke="none">

</text>
<text x="26" y="64" fill="rgb(0,0,0)" fill-opacity="1.0" font-size="10" stroke="none">
ORD_DT
</text>
<text x="96" y="64" fill="rgb(0,128,0)" fill-opacity="1.0" font-size="10" stroke="none">
DATE
</text>
<text x="16" y="79" fill="rgb(255,0,0)" fill-opacity="1.0" font-size="10" stroke="none">

</text>
<text x="26" y="79" fill="rgb(0,0,0)" fill-opacity="1.0" font-size="10" stroke="none">
ORD_ST
</text>
<text x="96" y="79" fill="rgb(0,128,0)" fill-opacity="1.0" font-size="10" stroke="none">
VARCHAR2 (40 BYTE)
</text>
<text x="16" y="94" fill="rgb(255,0,0)" fill-opacity="1.0" font-size="10" stroke="none">

</text>
<text x="26" y="94" fill="rgb(0,0,0)" fill-opacity="1.0" font-size="10" stroke="none">
PAY_DT
</text>
<text x="96" y="94" fill="rgb(0,128,0)" fill-opacity="1.0" font-size="10" stroke="none">
DATE
</text>
<text x="16" y="109" fill="rgb(255,0,0)" fill-opacity="1.0" font-size="10" stroke="none">

</text>
<text x="26" y="109" fill="rgb(0,0,0)" fill-opacity="1.0" font-size="10" stroke="none">
PAY_TP
</text>
<text x="96" y="109" fill="rgb(0,128,0)" fill-opacity="1.0" font-size="10" stroke="none">
VARCHAR2 (40 BYTE)
</text>
<text x="16" y="124" fill="rgb(255,0,0)" fill-opacity="1.0" font-size="10" stroke="none">

</text>
<text x="26" y="124" fill="rgb(0,0,0)" fill-opacity="1.0" font-size="10" stroke="none">
ORD_AMT
</text>
<text x="96" y="124" fill="rgb(0,128,0)" fill-opacity="1.0" font-size="10" stroke="none">
NUMBER (18,3)
</text>
<text x="16" y="139" fill="rgb(255,0,0)" fill-opacity="1.0" font-size="10" stroke="none">

</text>
<text x="26" y="139" fill="rgb(0,0,0)" fill-opacity="1.0" font-size="10" stroke="none">
PAY_AMT
</text>
<text x="96" y="139" fill="rgb(0,128,0)" fill-opacity="1.0" font-size="10" stroke="none">
NUMBER (18,3)
</text>
<line x1="0" y1="145" x2="214" y2="145" fill="none" stroke="rgb(0,0,255)"/>
<use xlink:href="#pk_sym" x="4" y="153" width="8" height="8" fill-opacity="1.0"/>
<text x="16" y="160" fill="rgb(0,0,0)" fill-opacity="1.0" font-size="10" stroke="none">
PK_T_ORD (ORD_SEQ)
</text>
<line x1="0" y1="166" x2="214" y2="166" fill="none" stroke="rgb(0,0,255)"/>
<use xlink:href="#fk_sym" x="4" y="174" width="8" height="8" fill-opacity="1.0"/><a xlink:href="#44E67B5D-46BE26926E9E" >
<text x="16" y="181" fill="rgb(0,0,0)" fill-opacity="1.0" font-size="10" stroke="none">
FK_T_ORD_1 (CUS_ID)
</text></a>
<line x1="0" y1="187" x2="214" y2="187" fill="none" stroke="rgb(0,0,255)"/>
<text x="2" y="202" fill="rgb(0,0,0)" fill-opacity="1.0" font-size="10" stroke="none">
U
</text>
<text x="16" y="202" fill="rgb(0,0,0)" fill-opacity="1.0" font-size="10" stroke="none">
PK_T_ORD (ORD_SEQ)
</text>
</g>

</svg>